<svg xmlns="http://www.w3.org/2000/svg" xmlns:xlink="http://www.w3.org/1999/xlink" width="257.162" height="55" viewBox="0 0 257.162 55"><defs><clipPath id="a"><rect width="50" height="49.783" fill="#705df1"/></clipPath></defs><g transform="translate(-53.838 -23)"><text transform="translate(110 67)" fill="#fff" font-size="44" font-family="FunnelDisplay-ExtraBold, Funnel Display" font-weight="800"><tspan x="0" y="0">Seb Mars</tspan></text><g transform="translate(53.838 23)"><g clip-path="url(#a)"><path d="M22.186,0l.5,1.335L23.544.072,29.9.07l.72,1.326c.171.04,1.687-.634,2.045-.68.08-.01.154-.035.228.019l1.518,2.27,4.531-.678,4.434,3.566c.167.362-.587,2.138-.526,2.663h3.3l3.819,5.822.038.208c-2.669.455-5.69.994-7.988,2.5a23.9,23.9,0,0,0-2.654,2.1,12.664,12.664,0,0,1,1.574,4.23,21.846,21.846,0,0,1,.359,2.783c.068,1.727-.644,2.473.258,4.314.536,1.094,2.4,3.911,2.413,4.949.017.95-1.241,1.529-1.947,1.9-.03.362.021.721-.041,1.081-.07.409-.411.812-.456,1.087a4.788,4.788,0,0,0,.072.837,3.131,3.131,0,0,1-.637,1.756c-.051.066-.194.08-.211.152-.09.361.045,1.156,0,1.6a3.374,3.374,0,0,1-2.98,2.91c-1.589.138-3.76-.794-5.167-.119-1.278.613-1.892,1.965-2.555,3.129a9.956,9.956,0,0,1-1.268-.536c-.054-.032-.119,0-.088-.118.837-2.2,2.715-4.465,5.3-4.322,1.079.06,2.456.446,3.5.426A2.309,2.309,0,0,0,38.234,45c1.365-.69.885-2.407.964-3.649.5-.222.85-.492.774-1.1l-1.612.281-.281-1.542,2.156-.439a1.678,1.678,0,0,0,.229-1.034h-.631V35.974h1.3a10.248,10.248,0,0,0,1.088-.526.168.168,0,0,0,.059-.193,7.71,7.71,0,0,0-.453-.956c-.56-1.132-1.348-2.27-1.863-3.4a4.093,4.093,0,0,1-.409-1.45l-.7.315V31.1l-.105.105h-1.4l-.1-.105V29.874h-.561V28.331h1.367c.547,0,1.637-.9,1.577-1.543l-3.392.7-.1-.114-.3-1.422,3.716-.7a11.789,11.789,0,0,0-1.084-4.419c-.113-.228-.392-.842-.629-.843-.365,0-1.052.227-1.486.275a4.4,4.4,0,0,0-.973.078l-1.927-.069c.185,1.376.45,2.927-.245,4.208A6.288,6.288,0,0,1,31.426,26.2l-.642,2.619a5.185,5.185,0,0,1-1.535-.392l.767-3.269c.854-.584,1.915-1.017,2.032-2.193.118-1.192-.225-2.422-.142-3.648.023-.339.15-.671.143-1.014a10.878,10.878,0,0,0,4.908.28C36.748,18.01,34.1,15.926,33.707,16l-.491.4c-.175-.031-.946-1.066-1.2-1.193a12.171,12.171,0,0,0-2.131-.6,16.006,16.006,0,0,0-2.818-.408c.123.145.349.233.247.455a7.5,7.5,0,0,1-1.045.978l-1.1-1.082.419-.526c-1.1.037-2.168-.1-3.259,0-.458.043-.912.159-1.368.21.083.166.278.2.178.419-.073.16-.921.722-1.054.981l-.851-.829a9.819,9.819,0,0,0-1.124.538,10.446,10.446,0,0,0-1.252.852c-.169.289.567.48.394.739-.215.322-.774.682-1.025,1.015h-.1c.025-.119-.473-.568-.562-.53a10.368,10.368,0,0,0-1.58,2.285c.24.313.743.638.953.943.043.062.1.1.035.177l-1.066.977-.621-.555a5.761,5.761,0,0,0-.5,1.458,4.469,4.469,0,0,0-.166,1.8c.1.182.868.741.84.9L12.43,26.487a14.773,14.773,0,0,0,1.633,6.891c.177-.121.478-.607.687-.552l1.026,1.019-.957,1.041a16.545,16.545,0,0,1,1.768,4.665c1.227.269,2.574.788,3.508-.349a3.35,3.35,0,0,0,.454-.878V37.061l.105-.105h1.507v1.227a3.694,3.694,0,0,1-3.611,3.33c-.493-.023-1.354-.307-1.754-.281-.288.019-.153.746-.184,1.01-.3,2.57-1.432,5-2.248,7.431l-.088.1-1.443-.514,1.4-3.956-2.824.406c-.835-.4-1.645-1.219-2.457-1.611-.855-.413-2.027-.6-2.923-.971L6.665,40.6l-2.516.552-3.432-8.6,1.389-2.93-1.3-1.432c-.192-1.6-.838-3.273-.807-4.88a21.371,21.371,0,0,1,2.235-8.639l-.748-2.423,2.723-3.7H6.175V5.472h2.7l.078-.145-.6-1.881,4.8-1.9L15.5,2.6V.915ZM22.3,10.731A8.27,8.27,0,0,0,22,9.8a12.765,12.765,0,0,1-.542-5,12.083,12.083,0,0,0,.207-1.464,11.292,11.292,0,0,0-.554-1.626l-4.041.6L17.06,4.439l1.734,6.5-1.54.353L15.483,4.614l-.2-.3a17.47,17.47,0,0,0-2.2-1.025l-2.776,1.1A10.566,10.566,0,0,0,10.8,5.859c.2.3.932.893,1.229,1.225,1.926,2.156,3.645,4.5,5.407,6.793.6-.254,1.178-.567,1.8-.781,2.74-.948,6.135-.779,8.984-.392a19.119,19.119,0,0,1,6.532,2,23.153,23.153,0,0,1,6.279-5.691l.616-2.444-.571-.457a12.065,12.065,0,0,0-4.819,3.035c-.137.143-.751.964-.865.944L34.3,9.027a13.453,13.453,0,0,1,5.317-4.081L38.392,4l-3.558.573a10.553,10.553,0,0,0-3.347,6.435l-1.5-.271a5.18,5.18,0,0,1,.245-1.51,11.629,11.629,0,0,1,2.835-5.09c.066-.1.034-.176,0-.276a10.268,10.268,0,0,0-.908-1.319L30.3,3.2a8.374,8.374,0,0,0-.916,3.888l-1.614-.141a2.918,2.918,0,0,0,.08-.937,10.751,10.751,0,0,1,.57-2.515c.109-.306.654-1.331.668-1.5.009-.11-.1-.251-.137-.362l-4.441-.012a.2.2,0,0,0-.139.071c-.074.062-1,1.485-1.051,1.613A11.48,11.48,0,0,0,23,6.772a19.654,19.654,0,0,0,.768,3.462ZM7.788,9.224a23.3,23.3,0,0,1,4.306,4.459c.162.223.7.929.779,1.119.024.053.053.1.026.158l-1.257.861a23.318,23.318,0,0,0-4.274-4.914,8.689,8.689,0,0,0-1.035-.788,5.135,5.135,0,0,0-1.281.017L3.247,12.6l.722,2.127a24.89,24.89,0,0,0,4.9,2.387c.6.211,1.26.335,1.832.553.079.03.119-.043.087.1a5.929,5.929,0,0,1-.513,1.433,28.7,28.7,0,0,1-4.55-1.677C5,17.171,4.1,16.511,3.438,16.237a.331.331,0,0,0-.207-.036,24.057,24.057,0,0,0-1.614,6.31l4.944-.419H8.91v1.543a65.321,65.321,0,0,0-7.293.491l.666,3.3.786.832c.653-.219,1.251-.574,1.9-.814a14.676,14.676,0,0,1,3.874-.86l.132,1.535a12.971,12.971,0,0,0-5.1,1.595L2.459,32.579l.805,1.991a30.161,30.161,0,0,1,7.842-4.217l.108-.1c-.056-.819-.291-1.626-.342-2.445a21.13,21.13,0,0,1,.3-5.1,13.3,13.3,0,0,1,4.877-7.849l.013-.095a61.379,61.379,0,0,0-6.349-7.75H7.788Zm34.147,1.12a21.392,21.392,0,0,0-5.68,5.1.154.154,0,0,1-.138.053v.138a10.834,10.834,0,0,1,2.312,2.143c.132.06.677-.5.81-.6a20.752,20.752,0,0,1,3.514-2.306A22.28,22.28,0,0,1,47.4,13.466l-2.174-3.33a20.406,20.406,0,0,0-3.141-.02c-.031.018-.059.16-.155.228M6.733,38.951a9.3,9.3,0,0,1,3.484-2.546,6.647,6.647,0,0,1,1.494-.567l.534,1.4A16.819,16.819,0,0,0,8.7,39.163l-.761,2.872c.749.407,1.695.456,2.341,1.091a11.1,11.1,0,0,1,2.375-3.5c.154.2,1.1.807,1.086,1-.009.106-.751.952-.888,1.147a10.49,10.49,0,0,0-1.2,2.336l3.121-.56a9.217,9.217,0,0,0-.056-4.994c-.69-2.371-2.359-4.319-3-6.714a24.008,24.008,0,0,0-7.818,4.344l1.234,3.155Z" transform="translate(0)" fill="#705df1"/><path d="M140.387,192.976a10.334,10.334,0,0,0,3.653,2.194l.728-1.36c-.777-.465-1.66-.71-2.414-1.224a4.515,4.515,0,0,1-1.7-2.509,14.464,14.464,0,0,1-.76-2.259c-.022-.3.579-.878.457-1.048l-1.283-.7c-.406.327-.486,1.2-1.146.988a8.287,8.287,0,0,1-2.788-3.314c-.419-1.487.559-4.594,2.605-3.587.819.4,1.019,1.348,1.212,2.156l1.475-.251c-.136-2.214-1.641-3.877-3.961-3.645-2.354.235-3.4,3.784-2.859,5.732.372,1.345,2.433,3.908,3.756,4.378.417.148.737.083,1.137.2.555,1.344.923,3.133,1.886,4.25" transform="translate(-112.656 -150.58)" fill="#705df1"/><path d="M126.878,132.151l1.08.991a3.825,3.825,0,0,0,1.091-1.155l-1.092-1-1.053,1.032Z" transform="translate(-107.093 -110.558)" fill="#705df1"/><path d="M182.395,101.225l-1.146,1.082,1.1,1.082,1.146-1.082Z" transform="translate(-152.985 -85.44)" fill="#705df1"/><path d="M182.395,121.01l-1.146,1.082,1.1,1.082,1.146-1.082Z" transform="translate(-152.985 -102.14)" fill="#705df1"/><path d="M137.879,106.171l-1.146,1.082,1.1,1.082,1.08-1.082Z" transform="translate(-115.41 -89.615)" fill="#705df1"/><path d="M162.61,111.118l-1.146,1.082,1.1,1.082,1.08-1.082Z" transform="translate(-136.285 -93.79)" fill="#705df1"/><path d="M162.61,135.849l-1.146,1.082,1.1,1.082,1.08-1.082Z" transform="translate(-136.285 -114.665)" fill="#705df1"/><path d="M118.054,165.5l-1.082,1.1,1.082,1.08,1.082-1.08Z" transform="translate(-98.732 -139.694)" fill="#705df1"/><path d="M93.323,175.394l-1.082,1.1,1.082,1.08,1.082-1.08Z" transform="translate(-77.857 -148.043)" fill="#705df1"/><path d="M113.164,220.387c-.213-.056-.934.848-1.138,1.019l1.082,1.146,1.082-1.1a6.91,6.91,0,0,0-1.026-1.07" transform="translate(-94.557 -186.017)" fill="#705df1"/><path d="M113.164,190.709c-.213-.056-.934.848-1.138,1.019l1.082,1.08,1.082-1.029a6.91,6.91,0,0,0-1.026-1.07" transform="translate(-94.557 -160.968)" fill="#705df1"/><path d="M107.508,122.57c.184.191.347.332.528.543.059.068.083.067.169.034a6.4,6.4,0,0,0,1.019-1.064l-.129-.224-.945-.875-1.086,1.09a4.831,4.831,0,0,0,.445.495" transform="translate(-90.367 -102.119)" fill="#705df1"/><path d="M97.7,146.231a4.864,4.864,0,0,0-.51.632l1.022,1.019c.182.031.956-.862,1.142-1.019l-1.082-1.146a4.9,4.9,0,0,1-.572.514" transform="translate(-82.032 -122.994)" fill="#705df1"/><path d="M136.687,151.941c.27.032.94,1.014,1.147.978l1.015-1.071-1.076-1.08a9.76,9.76,0,0,0-1.017,1c-.04.059-.1.073-.068.176" transform="translate(-115.365 -127.257)" fill="#705df1"/><path d="M166.438,161.816a3.579,3.579,0,0,1,.588.5c.083.078.4.488.428.493.225.037.936-.849,1.145-1.032.026-.151-.884-.992-1.081-1.132l-1.053,1.035Z" transform="translate(-140.484 -135.593)" fill="#705df1"/></g></g></g></svg>