<svg xmlns="http://www.w3.org/2000/svg" xmlns:xlink="http://www.w3.org/1999/xlink" width="249.867" height="55" viewBox="0 0 249.867 55"><defs><clipPath id="a"><rect width="44.705" height="50.608" fill="#705df0"/></clipPath></defs><g transform="translate(-61.133 -23)"><text transform="translate(110 67)" fill="#fff" font-size="44" font-family="FunnelDisplay-ExtraBold, Funnel Display" font-weight="800"><tspan x="0" y="0">Seb Mars</tspan></text><g transform="translate(61.133 25.196)"><g clip-path="url(#a)"><path d="M71.736,84.229A3.065,3.065,0,0,1,70.4,83.2a.273.273,0,0,1-.033-.254,1.471,1.471,0,0,1,1.2-.638.933.933,0,0,1,.988.593,3.534,3.534,0,0,1-.142,3.412c-.044.076-.085.154-.127.231a.482.482,0,0,0,.191-.154,3.447,3.447,0,0,0,.118-3.8.85.85,0,0,0-.976-.439,3.3,3.3,0,0,0-.827.273A1.435,1.435,0,0,0,70,83.59a.744.744,0,0,0,.343.662l-.267-.661.106-.072a10.867,10.867,0,0,1,.962.6,2.782,2.782,0,0,1,.644.673.949.949,0,0,1-.376,1.269,2.79,2.79,0,0,0-.985.61,1.044,1.044,0,0,1-.812.24l.63-1.266.73.218c-.3-.467-.848-.36-1.3-.61a1.1,1.1,0,0,1-.1.969,1.491,1.491,0,0,0-.231,1.125,1.764,1.764,0,0,0,.218-.043c.457-.156.828-.543,1.36-.5.037,0,.085-.049.115-.086a10.932,10.932,0,0,0,.777-.989,1.384,1.384,0,0,0,.118-1.273.4.4,0,0,0-.194-.229" transform="translate(-44.728 -53.003)" fill="#705df0"/><path d="M72.119,80.891a1.933,1.933,0,0,0-1.474.169,2.53,2.53,0,0,0-1.266,1.221A.709.709,0,0,0,69.4,83a9.529,9.529,0,0,1,.517-.958,3.549,3.549,0,0,1,.68-.762,1.705,1.705,0,0,1,2.538.617,3.567,3.567,0,0,1-.076,3.235,16,16,0,0,1-.974,1.53l.051.047c.323-.46.674-.9.963-1.383a3.386,3.386,0,0,0,.189-3.4,1.86,1.86,0,0,0-1.166-1.038" transform="translate(-44.72 -52.158)" fill="#705df0"/><path d="M44.611,18.694h-1.2c0-.024,0-.049,0-.074l1.207-.261-.016-.08-1.33-.213c0-.018,0-.036,0-.054l.5-.092,0-.061-.289-.113.821-.278c0-.023,0-.047-.007-.071l-.722-.054.008-.051.756-.244-.015-.076-.91-.244.826-.307-.5-.152.965-.309-.349-.137.307-.142c0-.032-.01-.064-.015-.1H43.34l1.169-.822-.64-.09.472-.142-.014-.121H43.277c0-.023.006-.046.009-.068l.864-.368-.043-.139-1.488.174-.014-.09c.411-.248.872-.419,1.27-.686l-.06-.144-1.095.137c0-.018,0-.035,0-.053l.592-.337-.527-.079.846-.479c-.559-.25-1.034.017-1.537.072.21-.458.757-.621.939-1.113l-1.25.283-.024-.1c.279-.216.568-.421.829-.656.077-.069.072-.226.123-.408l-.8.283.344-.433-.064-.1-1.018.323c.234-.4.717-.534.959-1.006L40.9,9.729l-.035-.09.624-.739-.046-.059-1.232.465-.095-.151.848-.718c-.683-.225-.939.365-1.42.536a1.935,1.935,0,0,1,.767-1.116l-.379-.314-1.063.851.656-1.188-.892.594.414-.988-.807.791.445-1.09-.05-.041-.591.624.25-.9-1.155,1.1L38,5.951l-.862.556.4-.932-.048-.038-.247.367-.1-.066.129-.32-.184-.4L36.12,6l.444-1.108-.074-.041-.318.29-.089-.049.3-.652-.05-.037-.679.532c.02-.362.35-.632.08-.951l-.917.848-.088-.037.485-1.169L34.674,4l-.044-.048.278-.541c-.458-.163-.546.333-.895.473l.3-.729-.055-.028-.376.295c-.058-.284.31-.583-.121-.777L32.542,4.195c.091-.736.651-1.248.549-2.03l-.571.538.048-.461-.082-.05-.358.427-.065-.027.152-.725c-.554.218-.653.833-1.143,1.089l.143-.864-.09-.017L29.812,4.883l-.105-.031c.077-1.162.565-2.288.342-3.487l-.171.331c-.026-.329-.045-.562-.069-.872l-.578,1.26-.12-.029a1.58,1.58,0,0,0-.106-1.4l-.393.955-.069-.021c-.02-.217-.04-.434-.066-.721l-.2.312-.083-.013V.325l-.1-.02-.424.879L27.235.676l-.265.7-.049-.015Q26.893.93,26.865.5L26.791.51l-.329.52C26.426.8,26.4.637,26.377.477L26.3.486,26.23.98h-.072Q26.128.65,26.1.322l-.076,0q-.131.566-.262,1.133l-.1,0V.2h-.1q-.088,1.211-.175,2.421l-.1-.006-.4-2.595-.09,0q-.033.279-.067.558l-.066,0q-.038-.25-.075-.5L24.52.088l-.227.558L24.236.632Q24.19.317,24.144,0l-.113.008-.186,1.281L23.8,1.283,23.569.427l-.095.006q-.04.315-.08.631l-.042-.013-.219-.93-.12.017-.067.425h-.059q-.04-.228-.08-.456L22.687.091,22.467,1,22.188.371,22.117.38l-.07.542-.06-.008L21.923.291l-.11,0-.06.869L21.465.284,21.331.3V1.573l-.084,0-.127-.418-.129.528L20.562.567,20.436.6v.851c-.39-.19-.292-.6-.587-.874V1.643l-.128.021-.235-.569-.344.327.148.91-.1.021-.183-.269-.081.017v.6l-.582-1.134-.121.016c-.05.133-.152.272-.137.4a4.076,4.076,0,0,0,.2.636c.177.591.353,1.182.522,1.775.14.49.268.984.4,1.476.076.284.15.567.225.851l-.115.034L17.133,2.764,17,2.814l.451,1.467-.085.031c-.2-.3-.4-.593-.593-.891s-.386-.6-.608-.95c-.025.167-.043.287-.063.421l-.274-.251-.062.061.2.791-.072.015-.454-.728-.1.007v.981l-.456-.742-.12.049.132.63-.044.013-.4-.622-.1.036a5.271,5.271,0,0,0,0,.555c.019.182.073.36.129.62-.455-.219-.556-.643-.907-.971.066.512.122.936.177,1.36l-.091.028L12.84,3.711V4.26l-.222-.122-.393.611-.454-.431-.055.064q.044.461.087.923l-.085.032-.479-.573-.052.021.143.671-.059.009-.447-.482-.12.051q.16.62.32,1.24l-.053.01-.337-.374-.1.266-.5-.647c-.02.257-.032.415-.046.606l-.374-.245-.076.049a8.027,8.027,0,0,0,.886,1.629c.285.554.586,1.1.907,1.634s.679,1.081,1.038,1.608c.347.511.718,1.007,1.078,1.51l-.133.107L8.3,7.244l-.069.047.127.357-.047.032-.344-.287-.082.189-.4-.079.414.753L7.851,8.3l-.387-.313-.039.046.191.486L7.063,8.1l-.087.072.962,1.656C7.3,9.489,6.954,8.84,6.293,8.571l.315.66c-.251,0-.311-.4-.541-.151l-.352-.257-.1.075.322.627L5.775,9.7l-.368-.34-.045.354-.225.011.128.522L4.815,10l-.084.068c.09.152.181.3.269.456s.172.305.258.458l-.087.046-.614-.516a.229.229,0,0,0,.021.222c.571.741,1.146,1.479,1.717,2.22a1.846,1.846,0,0,1,.141.26.634.634,0,0,1-.323-.155c-.609-.474-1.213-.955-1.831-1.417a2.1,2.1,0,0,0-.486-.2.682.682,0,0,0,.184.761c.607.74,1.2,1.49,1.8,2.236.4.494.8.985,1.192,1.481.171.215.333.437.5.656-.082.03-.121.028-.141.008-.556-.554-1.1-1.12-1.668-1.662-.716-.683-1.448-1.35-2.18-2.016a1.643,1.643,0,0,0-.383-.17l.241.524-.357-.048c0,.321.462.469.253.848l-.6-.394-.047.07.311.541-.536-.3-.041.077.412.93-1.072-.233.21.379-.433-.141.428.657-.632-.185-.068.1.824.7-.08.1-.688-.322c-.01.113.017.158.056.189.269.211.541.419.811.63.651.511,1.291,1.035,1.953,1.531,1.175.881,2.365,1.743,3.545,2.619.167.124.308.282.466.419s.312.258.469.386l-.072.062C5.627,20.654,2.893,18.872,0,17.786a.254.254,0,0,0,.1.189c.743.415,1.484,1.189,2.236,1.587.516.273,1.067.485,1.57.777a23.107,23.107,0,0,1,4.34,2.927c.636.6,1.3.827,1.934,1.425.281.264.525.566.781.855.282.319.566.636.835.966.107.131.245.248.352.381a2.627,2.627,0,0,0,.083.461,2.394,2.394,0,0,1-.329,2.223c-.439.591-.913,1.157-1.344,1.753a8.957,8.957,0,0,0-.878,1.381.858.858,0,0,0,.409,1.16,7.383,7.383,0,0,0,.711.349c.611.288.715.566.434,1.166-.033.071-.068.142-.094.216a.745.745,0,0,0,.283.931c.131.1.258.2.385.3-.4.543-.429.8.016,1.308a1.849,1.849,0,0,1,.416,1.671,1.877,1.877,0,0,0,.3,1.48.68.68,0,0,1,.111.351c.008.264-.023.529-.025.794,0,.663,0,1.327,0,2.011.094-.051.2-.1.294-.16,1.092-.64,2.191-1.269,3.272-1.927a1.364,1.364,0,0,1,.921-.2c.146.018.294.027.439.048a1.748,1.748,0,0,1,1.572,1.1c.353.947.377.93.408,1.069.238,1.086.492,3.171.725,4.259a4.01,4.01,0,0,0,1.091,1.621c.786.61,4.2.455,7.964-.708,3.793-1.173,6.077-3.614,5.738-4.11C34.2,44.2,32.7,42.646,32.3,40.933a7.03,7.03,0,0,1-.228-3.52c.052-.293.117-.58.191-.864A13.67,13.67,0,0,0,33.478,38.8,3.143,3.143,0,0,0,34.9,40.127a2.292,2.292,0,0,0,.3.073l.052-.068-.931-1.451.072-.038.632.393.143-.026c-.34-.27-.015-.264.058-.356-.946-.7-1.665-1.609-1.578-1.988.927.623,1.025.659,1.346.5a2.467,2.467,0,0,1-1.1-1.545l.587.107-1.032-2.285q.089-.192.18-.384.413.695.828,1.388a.506.506,0,0,0,.2.167,3.842,3.842,0,0,0,.38.146l-.291-.859.088-.023.314.356.08-.044-.344-.782c.4.126.478.595.986.584l-1.546-2.457.079-.186,1.913,1.68.1-.089-.157-.411.514.309c-.15-.39-.5-.7-.159-1.146l.681.575-.141-.438.062-.026.371.274c-.1-.228-.176-.39-.251-.55-.064-.135-.132-.269-.2-.4l.082-.038.629.544.083-.056-.512-.748.079-.072.642.348.1-.1c-.667-.923-1.386-1.81-2.067-2.728a5.266,5.266,0,0,1,.687.526c.627.556,1.249,1.117,1.876,1.672a.388.388,0,0,0,.218.1,3.383,3.383,0,0,0,.463-.048l-.311-.472L39.166,30l.487.335.086-.09-.762-.774.053-.065.971.776.068-.08-.4-.774.088-.055a5.107,5.107,0,0,0,.462.317,3.591,3.591,0,0,0,.462.178l.059-.121-.993-.884.01-.056.937.314.026-.075-3.3-2.352.079-.128c.235.113.465.237.706.336.825.337,1.65.675,2.484.992a7.957,7.957,0,0,0,.887.23l.045-.13-.892-.576.027-.084.972.149.018-.1-.742-.406.029-.071.569.123.017-.075-.526-.288.03-.082.912.252.061-.077-.4-.318h.651l.039-.091-.9-.78.94.16.05-.121-.853-.564.024-.076,1.041.3.074-.123-.734-.542.009-.055.8.133.055-.145-1.094-.543a1.9,1.9,0,0,1,.583.041c.2.033.4.057.6.086l.032-.11-1.062-.578.017-.1h1.216L38.354,22.2l.01-.127h5.49c0-.038.005-.075.008-.113l-1.039-.254,0-.085h1.041c0-.055.008-.11.012-.165l-1-.163,0-.062.966-.063,0-.093-.59-.088c0-.01,0-.021,0-.031l.678-.088c.005-.033.011-.067.016-.1L42.715,20.4c0-.029,0-.058,0-.087h1.406l.009-.109-1.079-.409.008-.045.906-.039c-.668-.312-.668-.312-.67-.549l1.331-.327c-.005-.047-.011-.093-.016-.14M32.082,30.542a14.6,14.6,0,0,1-1.04,1.771,7.924,7.924,0,0,0-1.2,3.167,12.264,12.264,0,0,0,0,2.523c.183,1.577.477,3.57.7,5.142.14.98.156.722-.56,1.508a5.841,5.841,0,0,1-1.419,1.129,24.862,24.862,0,0,1-2.484,1.178,11.645,11.645,0,0,1-1.428.443.777.777,0,0,1-.293-.029c-.028,0-.053-.025-.082-.03a1.335,1.335,0,0,1-.689-.321,3.65,3.65,0,0,1-.811-1.678c-.046-.516-.013.391-.033-.128a13.772,13.772,0,0,0-.3-2.045,19.462,19.462,0,0,1-1.354-3.386c0-.113-.012-.227-.02-.344a6.174,6.174,0,0,0-2.248.34,12.62,12.62,0,0,1-1.676.285,3.26,3.26,0,0,1-2.626-1.01c-.039-.617-.092-1.233-.144-1.848a16.4,16.4,0,0,1,.046-3.936,9.986,9.986,0,0,1,1.07-3.307c.014-.026.025-.053.038-.08.5-1.062.406-1.62-.6-2.193a1.659,1.659,0,0,1-.612-2.257,6.222,6.222,0,0,0,.624-2.01,4.243,4.243,0,0,1,.271-.9,7.257,7.257,0,0,0,.8-.758,9.814,9.814,0,0,1,2.045-1.845c.394-.25.8-.483,1.208-.709a4.945,4.945,0,0,1,.74-.134c.856-.087,1.715-.155,2.573-.229.567-.049,1.136-.084,1.7-.14a7.163,7.163,0,0,1,3.42.542c.46.184.913.385,1.366.587a5.559,5.559,0,0,1,3,3.237,10,10,0,0,1,.017,7.468" transform="translate(0 -0.001)" fill="#705df0"/><path d="M69.345,103.313a.4.4,0,0,0-.095.009v.212h.081c.095,0,.171-.032.171-.108s-.05-.113-.158-.113" transform="translate(-44.695 -66.68)" fill="#705df0"/><path d="M68.526,102.36a.59.59,0,0,0,0,1.18.566.566,0,0,0,.563-.586.572.572,0,0,0-.568-.595m.176.978a.645.645,0,0,1-.059-.18c-.013-.081-.059-.117-.153-.117h-.081v.3h-.171V102.6a1.5,1.5,0,0,1,.284-.023.461.461,0,0,1,.257.054.205.205,0,0,1,.072.162.19.19,0,0,1-.153.171v.009a.218.218,0,0,1,.135.18.564.564,0,0,0,.054.185Z" transform="translate(-43.859 -66.065)" fill="#705df0"/><path d="M69.8,98.146l-.065-.08c-.1.076-.194.147-.284.228a3.837,3.837,0,0,1-1.431.889,1,1,0,0,0-.5-.137,1.016,1.016,0,0,0-.169.017l.242-.179-.127-.3-.608.391-.395-1.015a1.061,1.061,0,0,0,.239,1.189c-.645.8-.466,1.281-.044,1.718a1.122,1.122,0,0,0,1.526.056,1.438,1.438,0,0,0,.412-.653.961.961,0,0,0-.2-.985l1.4-1.142m-2.353,2.714a.743.743,0,1,1,0-1.486.743.743,0,1,1,0,1.486" transform="translate(-42.776 -63.226)" fill="#705df0"/></g><text transform="translate(37.314 44.863)" fill="#705df0" font-size="3" font-family="TussilagoRg-Bold, Tussilago" font-weight="700"><tspan x="0" y="0">®</tspan></text></g></g></svg>