<svg xmlns="http://www.w3.org/2000/svg" xmlns:xlink="http://www.w3.org/1999/xlink" width="92.842" height="92.641" viewBox="0 0 92.842 92.641"><defs><clipPath id="a"><rect width="92.841" height="92.641" fill="#705df1"/></clipPath></defs><g clip-path="url(#a)"><path d="M43.212.1c37.249-2.434,62.34,38.248,42.854,70.343-17.533,28.879-59.9,29.78-78.416,1.492C-11.8,42.225,7.925,2.411,43.212.1M44.45,6.6C11.692,8.7-5.433,46.89,16.077,72.17c22.41,26.337,65.55,13.11,69.83-21.043C88.9,27.258,68.641,5.042,44.45,6.6" transform="translate(0 0)" fill="#705df1"/><path d="M60.207,47.957a2.89,2.89,0,0,1,2.253.707l20.7,20.719c2.266,3.274-1.855,6.58-4.933,4.313L60.7,56.27,42.947,73.688A3.37,3.37,0,0,1,37.54,70.14L58.421,48.978a5.1,5.1,0,0,1,1.786-1.021" transform="translate(-14.224 -18.219)" fill="#705df1"/></g></svg>